<?xml version="1.0" standalone="no"?>
<!DOCTYPE svg PUBLIC "-//W3C//DTD SVG 20010904//EN"
 "http://www.w3.org/TR/2001/REC-SVG-20010904/DTD/svg10.dtd">
<svg version="1.0" xmlns="http://www.w3.org/2000/svg"
 width="256.000000pt" height="256.000000pt" viewBox="0 0 256.000000 256.000000"
 preserveAspectRatio="xMidYMid meet">
<metadata>
Created by potrace 1.14, written by Peter Selinger 2001-2017
</metadata>
<g transform="translate(0.000000,256.000000) scale(0.100000,-0.100000)"
fill="#000000" stroke="none">
<path d="M1109 2549 c-275 -40 -530 -166 -723 -354 -181 -178 -306 -406 -361
-660 -22 -103 -28 -333 -10 -440 66 -412 291 -735 649 -934 202 -112 404 -161
646 -156 126 3 155 6 220 20 14 3 38 8 54 11 16 2 33 7 38 10 4 3 16 7 25 9
68 14 339 143 363 174 3 3 21 17 40 31 98 69 207 182 278 290 21 30 42 60 47
66 6 6 24 40 40 75 17 35 32 66 35 69 3 3 20 48 37 100 28 85 38 122 59 225 3
17 7 93 9 170 3 140 -11 257 -48 390 -24 86 -111 271 -159 340 -16 22 -36 51
-46 65 -45 66 -146 167 -237 238 -33 25 -62 49 -65 52 -8 9 -61 39 -143 81
-92 47 -229 94 -335 116 -88 17 -330 25 -413 12z"/>
</g>
</svg>
